<svg width="24" height="25" viewBox="0 0 24 25" fill="none" xmlns="http://www.w3.org/2000/svg">
<path d="M1.2009 14.4245L9.58592 22.7991C11.1836 24.3968 12.823 24.4072 14.3997 22.82L22.8161 14.4036C24.4033 12.8164 24.3929 11.177 22.7952 9.57937L14.4206 1.20479C12.823 -0.392856 11.1836 -0.403298 9.59636 1.1839L1.18001 9.60026C-0.407191 11.1875 -0.386307 12.8269 1.2009 14.4245ZM10.839 17.1604C10.4317 17.1604 10.1185 16.9828 9.82609 16.6069L7.26777 13.4952C7.07981 13.2654 6.98583 13.0148 6.98583 12.7538C6.98583 12.2212 7.40352 11.7827 7.93607 11.7827C8.25977 11.7827 8.52083 11.908 8.78188 12.2421L10.7972 14.8004L15.1202 7.88775C15.3395 7.52228 15.6319 7.34476 15.9661 7.34476C16.4777 7.34476 16.9581 7.71023 16.9581 8.25322C16.9581 8.49339 16.8328 8.75445 16.6866 8.98417L11.7997 16.6069C11.5595 16.962 11.2253 17.1604 10.839 17.1604Z" fill="#1EE3B2"/>
</svg>
