<svg width="19" height="19" viewBox="0 0 19 19" fill="none" xmlns="http://www.w3.org/2000/svg">
<path d="M11.0146 8.25293C13.1416 8.25293 14.8643 6.37207 14.8643 4.06934C14.8643 1.80176 13.1416 0 11.0146 0C8.90527 0 7.16504 1.82812 7.16504 4.08691C7.17383 6.38086 8.8877 8.25293 11.0146 8.25293ZM11.0146 6.71484C9.80176 6.71484 8.77344 5.56348 8.77344 4.08691C8.77344 2.64551 9.79297 1.53809 11.0146 1.53809C12.2451 1.53809 13.2559 2.62793 13.2559 4.06934C13.2559 5.5459 12.2363 6.71484 11.0146 6.71484ZM11.0146 9.27246C9.47656 9.27246 8.13184 9.61523 7.01562 10.1777C7.44629 10.5117 7.82422 10.916 8.13184 11.3818C8.94043 11.0303 9.90723 10.8105 11.0146 10.8105C14.8818 10.8105 17.0527 13.3154 17.0527 14.6602C17.0527 14.8184 16.9736 14.8887 16.7627 14.8887H9.30078C9.29199 15.4336 9.22168 15.9082 9.05469 16.4268H16.4902C18.0107 16.4268 18.7402 15.9434 18.7402 14.9062C18.7402 12.4893 15.7256 9.27246 11.0146 9.27246Z" fill="white"/>
<path d="M1.09375 18.2422H7.85937C8.52344 18.2422 8.96094 17.75 8.96094 17.1484C8.96094 16.9609 8.90625 16.7812 8.80469 16.6094L5.42188 10.5547C5.21094 10.1797 4.84375 10 4.47656 10C4.10938 10 3.73438 10.1797 3.53125 10.5547L0.148438 16.6094C0.046875 16.7812 0 16.9609 0 17.1484C0 17.75 0.429687 18.2422 1.09375 18.2422ZM4.47656 15.1484C4.17969 15.1484 3.96094 14.9453 3.95312 14.6484L3.89062 12.4766C3.88281 12.1328 4.125 11.8906 4.47656 11.8906C4.83594 11.8906 5.07812 12.125 5.07031 12.4766L5.00781 14.6484C4.99219 14.9453 4.78125 15.1484 4.47656 15.1484ZM4.47656 17.0547C4.08594 17.0547 3.77344 16.75 3.77344 16.3594C3.77344 15.9766 4.08594 15.6719 4.47656 15.6719C4.875 15.6719 5.1875 15.9844 5.1875 16.3594C5.17969 16.75 4.875 17.0547 4.47656 17.0547Z" fill="white"/>
</svg>
