<svg width="16" height="20" viewBox="0 0 16 20" fill="none" xmlns="http://www.w3.org/2000/svg">
<path d="M2.86523 19.0459H12.2344C14.1152 19.0459 15.0996 18.0527 15.0996 16.1543V2.8916C15.0996 0.984375 14.124 0 12.2344 0H9.60645C9.28125 0 9.0791 0.202148 9.0791 0.527344C9.0791 1.38867 8.48145 2.04785 7.5498 2.04785C6.62695 2.04785 6.02051 1.38867 6.02051 0.527344C6.02051 0.202148 5.81836 0 5.49316 0H2.86523C0.984375 0 0 0.984375 0 2.8916V16.1543C0 18.0527 0.984375 19.0459 2.86523 19.0459ZM3.02344 17.2881C2.1709 17.2881 1.74902 16.8398 1.74902 16.04V3.00586C1.74902 2.19727 2.1709 1.74902 3.02344 1.74902H4.70215C5.08008 2.96191 6.14355 3.70898 7.5498 3.70898C8.95605 3.70898 10.0195 2.96191 10.3975 1.74902H12.0762C12.9287 1.74902 13.3506 2.19727 13.3506 3.00586V16.04C13.3506 16.8398 12.9287 17.2881 12.0762 17.2881H3.02344ZM4.35059 6.75879H10.7578C11.0742 6.75879 11.3203 6.5127 11.3203 6.1875C11.3203 5.87988 11.0742 5.64258 10.7578 5.64258H4.35059C4.0166 5.64258 3.7793 5.87988 3.7793 6.1875C3.7793 6.5127 4.0166 6.75879 4.35059 6.75879ZM4.35059 9.7998H7.45312C7.77832 9.7998 8.01562 9.55371 8.01562 9.24609C8.01562 8.92969 7.77832 8.68359 7.45312 8.68359H4.35059C4.0166 8.68359 3.7793 8.92969 3.7793 9.24609C3.7793 9.55371 4.0166 9.7998 4.35059 9.7998Z" fill="white"/>
</svg>
