<svg width="19" height="19" viewBox="0 0 19 19" fill="none" xmlns="http://www.w3.org/2000/svg">
<path d="M9.08789 18.1846C14.0889 18.1846 18.1846 14.0889 18.1846 9.08789C18.1846 4.0957 14.0977 0 9.09668 0C8.55176 0 8.24414 0.325195 8.24414 0.852539V4.08691C8.24414 4.53516 8.56055 4.88672 9.00879 4.88672C9.45703 4.88672 9.77344 4.53516 9.77344 4.08691V1.82812C13.4912 2.1709 16.3564 5.28223 16.3564 9.08789C16.3564 13.1133 13.1309 16.3652 9.08789 16.3652C5.05371 16.3652 1.81055 13.1133 1.81934 9.08789C1.82812 7.35645 2.43457 5.74805 3.4541 4.50879C3.78809 4.05176 3.84082 3.56836 3.46289 3.19043C3.08496 2.8125 2.47852 2.84766 2.08301 3.36621C0.791016 4.93066 0 6.92578 0 9.08789C0 14.0889 4.0957 18.1846 9.08789 18.1846ZM10.5029 10.4414C11.2236 9.67676 11.0742 8.63965 10.2129 8.05078L5.74805 4.9834C5.2207 4.63184 4.71094 5.15039 5.0625 5.67773L8.12988 10.1338C8.71875 11.0039 9.75586 11.1621 10.5029 10.4414Z" fill="white"/>
</svg>
