<svg width="24" height="24" viewBox="0 0 24 24" fill="none" xmlns="http://www.w3.org/2000/svg">
<path d="M22.413 1.6C21.0732 0.260163 19.226 0 16.8585 0H7.10244C4.77398 0 2.91382 0.273171 1.58699 1.6C0.247154 2.93984 0 4.77398 0 7.11545V16.8585C0 19.239 0.247154 21.0732 1.57398 22.4C2.92683 23.7398 4.77398 24 7.14146 24H16.8585C19.226 24 21.0732 23.7398 22.413 22.4C23.7528 21.0602 24 19.239 24 16.8585V7.14146C24 4.77398 23.7528 2.92683 22.413 1.6ZM7.55772 17.6911C6.8813 17.6911 6.34797 17.1447 6.34797 16.4423C6.34797 16.1301 6.46504 15.8309 6.69919 15.5967L10.2764 12.0195L6.69919 8.45528C6.46504 8.22114 6.34797 7.92195 6.34797 7.59675C6.34797 6.90732 6.8813 6.38699 7.55772 6.38699C7.92195 6.38699 8.20813 6.49106 8.42927 6.73821L12.0065 10.3024L15.6098 6.7252C15.8569 6.47805 16.1301 6.36098 16.4683 6.36098C17.1577 6.36098 17.6911 6.89431 17.6911 7.58374C17.6911 7.90894 17.574 8.19512 17.3268 8.44228L13.7496 12.0195L17.3138 15.5837C17.548 15.8309 17.678 16.1171 17.678 16.4423C17.678 17.1447 17.1447 17.6911 16.4553 17.6911C16.1041 17.6911 15.8049 17.548 15.5577 17.3268L12.0065 13.7626L8.46829 17.3268C8.22114 17.561 7.92195 17.6911 7.55772 17.6911Z" fill="#EB3743"/>
</svg>
