<svg width="18" height="10" viewBox="0 0 18 10" fill="none" xmlns="http://www.w3.org/2000/svg">
<path d="M1.05324 6.06482H12.7199L14.4329 5.9838L13.588 6.70139L11.8634 8.32176C11.6551 8.50694 11.5394 8.77315 11.5394 9.03935C11.5394 9.56019 11.9329 10 12.4653 10C12.7431 10 12.9514 9.88426 13.1481 9.6875L16.8981 5.81019C17.1643 5.53241 17.2569 5.27778 17.2569 5C17.2569 4.72222 17.1643 4.46759 16.8981 4.18981L13.1481 0.300926C12.9514 0.104167 12.7431 0 12.4653 0C11.9329 0 11.5394 0.416667 11.5394 0.949074C11.5394 1.2037 11.6551 1.48148 11.8634 1.66667L13.588 3.29861L14.4444 4.0162L12.7199 3.92361H1.05324C0.486111 3.92361 0 4.40972 0 5C0 5.59028 0.486111 6.06482 1.05324 6.06482Z" fill="#1EE3B2"/>
</svg>
