<svg width="28" height="28" viewBox="0 0 28 28" fill="none" xmlns="http://www.w3.org/2000/svg">
<path d="M7.02148 21.3711H21.1982C22.877 21.3711 23.8525 20.3955 23.8525 18.5234V8.81152C23.8525 6.93945 22.8682 5.95508 20.9697 5.95508H6.80176C5.12305 5.95508 4.13867 6.93066 4.13867 8.81152V18.5234C4.13867 20.4043 5.12305 21.3711 7.02148 21.3711ZM12.998 13.9795L6.58203 7.63379C6.71387 7.60742 6.86328 7.58984 7.02148 7.58984H20.9697C21.1455 7.58984 21.2949 7.60742 21.4355 7.64258L15.0195 13.9795C14.6504 14.3486 14.334 14.498 14.0088 14.498C13.6836 14.498 13.3672 14.3398 12.998 13.9795ZM5.75586 8.91699L10.5547 13.6367L5.75586 18.3916V8.91699ZM17.4629 13.6367L22.2441 8.94336V18.374L17.4629 13.6367ZM7.02148 19.7451C6.85449 19.7451 6.70508 19.7275 6.56445 19.6924L11.6182 14.6826L12.1016 15.166C12.7344 15.79 13.3584 16.0537 14.0088 16.0537C14.6592 16.0537 15.2832 15.79 15.916 15.166L16.3994 14.6826L21.4443 19.6836C21.3037 19.7275 21.1455 19.7451 20.9697 19.7451H7.02148Z" fill="#1C1C1E"/>
</svg>
