<svg width="18" height="10" viewBox="0 0 18 10" fill="none" xmlns="http://www.w3.org/2000/svg">
<path d="M16.9014 6.06482H4.73239L2.94567 5.9838L3.82696 6.70139L5.62575 8.32176C5.84306 8.50694 5.96378 8.77315 5.96378 9.03935C5.96378 9.56019 5.55332 10 4.99799 10C4.70825 10 4.49095 9.88426 4.28571 9.6875L0.374246 5.81019C0.0965801 5.53241 6.32834e-07 5.27778 6.32834e-07 5C6.32834e-07 4.72222 0.0965801 4.46759 0.374246 4.18981L4.28571 0.300926C4.49095 0.104167 4.70825 0 4.99799 0C5.55332 0 5.96378 0.416667 5.96378 0.949074C5.96378 1.2037 5.84306 1.48148 5.62575 1.66667L3.82696 3.29861L2.9336 4.0162L4.73239 3.92361H16.9014C17.493 3.92361 18 4.40972 18 5C18 5.59028 17.493 6.06482 16.9014 6.06482Z" fill="#EB3743"/>
</svg>
