<svg width="18" height="19" viewBox="0 0 18 19" fill="none" xmlns="http://www.w3.org/2000/svg">
<path d="M10.0146 8.25293C12.1416 8.25293 13.8643 6.37207 13.8643 4.06934C13.8643 1.80176 12.1416 0 10.0146 0C7.90527 0 6.16504 1.82812 6.16504 4.08691C6.17383 6.38086 7.8877 8.25293 10.0146 8.25293ZM10.0146 6.71484C8.80176 6.71484 7.77344 5.56348 7.77344 4.08691C7.77344 2.64551 8.79297 1.53809 10.0146 1.53809C11.2451 1.53809 12.2559 2.62793 12.2559 4.06934C12.2559 5.5459 11.2363 6.71484 10.0146 6.71484ZM10.0146 9.27246C8.47656 9.27246 7.13184 9.61523 6.01562 10.1777C6.44629 10.5117 6.82422 10.916 7.13184 11.3818C7.94043 11.0303 8.90723 10.8105 10.0146 10.8105C13.8818 10.8105 16.0527 13.3154 16.0527 14.6602C16.0527 14.8184 15.9736 14.8887 15.7627 14.8887H8.30078C8.29199 15.4336 8.22168 15.9082 8.05469 16.4268H15.4902C17.0107 16.4268 17.7402 15.9434 17.7402 14.9062C17.7402 12.4893 14.7256 9.27246 10.0146 9.27246Z" fill="white"/>
<path d="M1.15335 19H5.84669C6.62058 19 7 18.6525 7 17.8942V14.6851C7 14.0125 6.70045 13.665 6.0913 13.5928V12.5411C6.0913 10.826 4.82812 10 3.50001 10C2.1719 10 0.908705 10.826 0.908705 12.5411V13.5928C0.299571 13.665 0 14.0125 0 14.6851V17.8942C0 18.6525 0.379459 19 1.15335 19ZM1.86735 12.4599C1.86735 11.4082 2.60631 10.8305 3.50001 10.8305C4.38877 10.8305 5.13267 11.4082 5.13267 12.4599V13.5793H1.86735V12.4599ZM1.31313 18.1831C1.09344 18.1831 0.983594 18.0883 0.983594 17.8536V14.7257C0.983594 14.4865 1.09344 14.4007 1.31313 14.4007H5.69188C5.91156 14.4007 6.01643 14.4865 6.01643 14.7257V17.8536C6.01643 18.0883 5.91156 18.1831 5.69188 18.1831H1.31313Z" fill="white"/>
</svg>
