<svg width="24" height="24" viewBox="0 0 24 24" fill="none" xmlns="http://www.w3.org/2000/svg">
<circle cx="12" cy="12" r="12" fill="white"/>
<path d="M10.4679 5.37479C11.0455 5.37479 11.51 4.90395 11.51 4.32638C11.51 3.75509 11.0455 3.29053 10.4679 3.29053C9.89662 3.29053 9.43206 3.75509 9.43206 4.32638C9.43206 4.90395 9.89662 5.37479 10.4679 5.37479ZM16.8714 5.37479C17.4489 5.37479 17.9135 4.90395 17.9135 4.32638C17.9135 3.75509 17.4489 3.29053 16.8714 3.29053C16.3001 3.29053 15.8292 3.75509 15.8292 4.32638C15.8292 4.90395 16.3001 5.37479 16.8714 5.37479ZM7.11551 8.35679C7.69936 8.35679 8.15764 7.89223 8.15764 7.31466C8.15764 6.74337 7.69936 6.27881 7.11551 6.27881C6.54422 6.27881 6.08594 6.74337 6.08594 7.31466C6.08594 7.89223 6.54422 8.35679 7.11551 8.35679ZM13.8517 8.35679C14.4293 8.35679 14.9001 7.89223 14.9001 7.31466C14.9001 6.74337 14.4293 6.27881 13.8517 6.27881C13.2867 6.27881 12.8158 6.74337 12.8158 7.31466C12.8158 7.89223 13.2867 8.35679 13.8517 8.35679ZM16.8714 8.35679C17.4489 8.35679 17.9135 7.89223 17.9135 7.31466C17.9135 6.74337 17.4489 6.27881 16.8714 6.27881C16.3001 6.27881 15.8292 6.74337 15.8292 7.31466C15.8292 7.89223 16.3001 8.35679 16.8714 8.35679ZM12.3387 19.9897C15.1575 19.9897 16.9781 18.1503 16.9781 15.0867V13.5737C16.9781 12.0796 16.2561 11.1881 15.0319 11.163C14.8687 10.6922 14.4544 10.4034 13.9082 10.4034C13.7261 10.4034 13.5566 10.4348 13.3934 10.485C13.2051 9.97649 12.7845 9.6626 12.2194 9.6626C12.1002 9.6626 11.9809 9.68143 11.8553 9.7191V7.84201C11.8553 6.96938 11.284 6.39181 10.4679 6.39181C9.63295 6.39181 9.05538 6.96938 9.05538 7.84201V12.7953C9.05538 12.8329 9.03655 12.8581 9.00516 12.8581C8.98633 12.8581 8.96749 12.8392 8.96122 12.8141L8.60965 11.9917C8.38365 11.5271 8.0007 11.276 7.54241 11.276C6.85184 11.276 6.28055 11.7217 6.28055 12.4751C6.27427 12.6885 6.3245 12.9522 6.39983 13.1845L7.52985 16.3297C8.38993 18.7467 10.0285 19.9897 12.3387 19.9897ZM12.3701 18.9037C10.5935 18.9037 9.27511 18.0624 8.50921 15.9719L7.3478 12.8518C7.32268 12.7702 7.30385 12.7011 7.30385 12.6007C7.30385 12.4123 7.44196 12.2491 7.67425 12.2491C7.85003 12.2491 7.96303 12.3621 8.04464 12.5442L8.9361 14.4715C9.08677 14.7916 9.30022 14.8984 9.54506 14.8984C9.84012 14.8984 10.0661 14.6724 10.0661 14.3334V7.77295C10.0661 7.54067 10.2294 7.37116 10.4554 7.37116C10.6876 7.37116 10.8446 7.54067 10.8446 7.77295V12.3809C10.8446 12.632 11.058 12.8329 11.3092 12.8329C11.5603 12.8329 11.7674 12.632 11.7674 12.3809V10.7487C11.8679 10.7047 11.9934 10.6796 12.1064 10.6796C12.3764 10.6796 12.5459 10.8617 12.5459 11.1442V12.632C12.5459 12.8957 12.7656 13.0778 13.0105 13.0778C13.2553 13.0778 13.4625 12.8957 13.4625 12.632V11.4895C13.5629 11.4455 13.6885 11.4204 13.8015 11.4204C14.0714 11.4204 14.2409 11.6025 14.2409 11.885V12.8769C14.2409 13.1406 14.4607 13.3289 14.7118 13.3289C14.9566 13.3289 15.1701 13.1406 15.1701 12.8769V12.2491C15.6723 12.2491 15.9548 12.7388 15.9548 13.6177V14.98C15.9548 17.4786 14.6051 18.9037 12.3701 18.9037Z" fill="#1C1C1E"/>
</svg>
