<svg width="18" height="18" viewBox="0 0 18 18" fill="none" xmlns="http://www.w3.org/2000/svg">
<path d="M7.73438 9.25293C9.86133 9.25293 11.584 7.37207 11.584 5.06934C11.584 2.80176 9.86133 1 7.73438 1C5.61621 1 3.87598 2.82812 3.88477 5.08691C3.89355 7.38086 5.60742 9.25293 7.73438 9.25293ZM7.73438 7.71484C6.52148 7.71484 5.49316 6.56348 5.49316 5.08691C5.48438 3.64551 6.5127 2.53809 7.73438 2.53809C8.96484 2.53809 9.97559 3.62793 9.97559 5.06934C9.97559 6.5459 8.95605 7.71484 7.73438 7.71484ZM2.25 17.4268H13.21C14.7305 17.4268 15.46 16.9434 15.46 15.9062C15.46 13.4893 12.4453 10.2725 7.73438 10.2725C3.02344 10.2725 0 13.4893 0 15.9062C0 16.9434 0.729492 17.4268 2.25 17.4268ZM1.97754 15.8887C1.7666 15.8887 1.6875 15.8184 1.6875 15.6602C1.6875 14.3154 3.8584 11.8105 7.73438 11.8105C11.6016 11.8105 13.7725 14.3154 13.7725 15.6602C13.7725 15.8184 13.6934 15.8887 13.4824 15.8887H1.97754Z" fill="white"/>
<path d="M15.9211 9.63913C15.7092 9.94675 15.3264 10.0219 15.0256 9.83053C14.7043 9.62546 14.6633 9.22214 14.8957 8.86667C15.6135 7.80026 16.0373 6.41257 16.0373 4.97018C16.0373 3.52097 15.6203 2.12643 14.8957 1.06686C14.6564 0.711395 14.7043 0.308074 15.0256 0.109832C15.3264 -0.0884099 15.7092 -0.0132146 15.9211 0.294403C16.8166 1.54538 17.3293 3.23386 17.3293 4.97018C17.3293 6.69968 16.8098 8.38132 15.9211 9.63913Z" fill="white"/>
<path d="M13.1662 7.82761C12.9611 8.12155 12.5783 8.18991 12.2912 8.00534C11.9631 7.77975 11.9084 7.38327 12.1613 7.00046C12.5373 6.45358 12.7561 5.72897 12.7561 4.97018C12.7561 4.20456 12.5441 3.47311 12.1613 2.93991C11.9016 2.5571 11.9631 2.15378 12.2912 1.94186C12.5783 1.74362 12.9611 1.81198 13.1662 2.10593C13.7199 2.85104 14.0412 3.88327 14.0412 4.97018C14.0412 6.05026 13.7199 7.08932 13.1662 7.82761Z" fill="white"/>
</svg>
