<svg width="24" height="25" viewBox="0 0 24 25" fill="none" xmlns="http://www.w3.org/2000/svg">
<path d="M9.90451 19.8091C11.9056 19.8091 13.7809 19.205 15.3414 18.173L20.8537 23.6979C21.2186 24.0503 21.6843 24.2265 22.1878 24.2265C23.2322 24.2265 24 23.4085 24 22.3765C24 21.8983 23.8363 21.4326 23.4839 21.0802L18.0094 15.5805C19.1421 13.9696 19.8091 12.0189 19.8091 9.90453C19.8091 4.45516 15.354 0 9.90451 0C4.46775 0 0 4.45516 0 9.90453C0 15.354 4.45516 19.8091 9.90451 19.8091ZM9.90451 17.1662C5.91504 17.1662 2.6429 13.894 2.6429 9.90453C2.6429 5.91504 5.91504 2.64289 9.90451 2.64289C13.8941 2.64289 17.1662 5.91504 17.1662 9.90453C17.1662 13.894 13.8941 17.1662 9.90451 17.1662Z" fill="white"/>
</svg>
