<svg width="240" height="240" viewBox="0 0 240 240" fill="none" xmlns="http://www.w3.org/2000/svg">
<path d="M224.3 15.8881C211.046 2.58342 192.772 0 169.351 0H70.2627C47.2279 0 28.8257 2.71259 15.6997 15.8881C2.44504 29.1927 0 47.4058 0 70.6566V169.214C0 192.723 2.44504 210.936 15.571 224.241C28.9544 237.417 47.2279 240 70.6488 240H169.351C192.772 240 211.046 237.417 224.3 224.241C237.555 210.936 240 192.723 240 169.214V70.915C240 47.4058 237.555 29.0635 224.3 15.8881ZM214.777 67.4273V172.702C214.777 186.136 212.976 198.536 205.898 205.64C198.692 212.874 186.209 214.682 172.954 214.682H67.0456C53.7909 214.682 41.3083 212.874 34.1019 205.64C26.8954 198.536 25.2225 186.136 25.2225 172.702V67.6857C25.2225 53.9935 26.8954 41.5931 33.9732 34.3595C41.1796 27.1259 53.7909 25.3175 67.3029 25.3175H172.954C186.209 25.3175 198.692 27.2551 205.898 34.3595C213.105 41.5931 214.777 53.9935 214.777 67.4273ZM117.233 145.576C124.311 145.576 128.815 141.572 129.072 136.276C129.201 135.759 129.201 135.113 129.201 134.726C129.587 128.009 134.091 123.488 142.456 118.062C155.196 109.666 163.432 102.304 163.432 87.3197C163.432 65.7481 144.129 53.4769 121.351 53.4769C99.2172 53.4769 84.2895 63.5522 80.3003 75.6943C79.5282 77.8902 79.1421 80.0861 79.1421 82.4112C79.1421 88.6114 83.9035 92.4865 89.1796 92.4865C93.8123 92.4865 97.0295 90.549 99.6032 87.0614L101.534 84.4779C105.909 77.3735 112.086 73.6276 119.807 73.6276C130.231 73.6276 137.18 79.8278 137.18 88.6114C137.18 96.7492 131.775 100.754 120.836 108.375C111.7 114.704 105.137 121.421 105.137 133.175V134.596C105.137 141.83 109.383 145.576 117.233 145.576ZM116.976 185.231C125.212 185.231 132.032 179.16 132.032 171.023C132.032 162.885 125.34 156.943 116.976 156.943C108.74 156.943 101.92 163.014 101.92 171.023C101.92 179.16 108.869 185.231 116.976 185.231Z" fill="#A0A0A0"/>
</svg>
